<?xml version="1.0" encoding="UTF-8"?>
<svg xmlns="http://www.w3.org/2000/svg" xml:space="preserve" width="478px" height="478px" version="1.1" style="shape-rendering:geometricPrecision; text-rendering:geometricPrecision; image-rendering:optimizeQuality; fill-rule:evenodd; clip-rule:evenodd"
viewBox="0 0 478 478">
 <defs>
  <style type="text/css">
    .str2 {stroke:#FEFEFE;stroke-width:5.9;stroke-miterlimit:22.9256}
    .str1 {stroke:#201E1E;stroke-width:5.9;stroke-miterlimit:22.9256}
    .str0 {stroke:#201E1E;stroke-width:5.9;stroke-linecap:round;stroke-miterlimit:22.9256}
    .str3 {stroke:#CCCCCC;stroke-width:5.9;stroke-linecap:round;stroke-miterlimit:22.9256;stroke-dasharray:11.800000 17.700000}
    .fil8 {fill:none}
    .fil263 {fill:#FEFEFE}
    .fil6 {fill:#373435}
    .fil7 {fill:#FFF212}
    .fil135 {fill:#FFED16}
    .fil134 {fill:#FFE71B}
    .fil133 {fill:#FFE21E}
    .fil132 {fill:#FFDC21}
    .fil131 {fill:#FFD724}
    .fil130 {fill:#FFD226}
    .fil129 {fill:#FFCD28}
    .fil128 {fill:#FFC72A}
    .fil127 {fill:#FEC22C}
    .fil126 {fill:#FDBC2D}
    .fil125 {fill:#FCB72E}
    .fil124 {fill:#FBB22F}
    .fil123 {fill:#FAAC30}
    .fil122 {fill:#FAA631}
    .fil121 {fill:#F9A132}
    .fil120 {fill:#F89C32}
    .fil119 {fill:#F79733}
    .fil118 {fill:#F79233}
    .fil117 {fill:#F68D34}
    .fil116 {fill:#F58834}
    .fil115 {fill:#F58334}
    .fil114 {fill:#F47E35}
    .fil113 {fill:#F37835}
    .fil112 {fill:#F37335}
    .fil111 {fill:#F26E35}
    .fil110 {fill:#F26836}
    .fil109 {fill:#F16136}
    .fil108 {fill:#F05B36}
    .fil107 {fill:#F05536}
    .fil106 {fill:#EF4E36}
    .fil105 {fill:#EF4737}
    .fil104 {fill:#EE4037}
    .fil103 {fill:#EE3737}
    .fil4 {fill:#EC268F}
    .fil72 {fill:#EC268E}
    .fil73 {fill:#EC278A}
    .fil74 {fill:#ED2787}
    .fil75 {fill:#ED2884}
    .fil76 {fill:#ED2881}
    .fil77 {fill:#ED297E}
    .fil78 {fill:#ED297B}
    .fil79 {fill:#ED2A79}
    .fil80 {fill:#ED2B76}
    .fil81 {fill:#ED2B73}
    .fil82 {fill:#ED2C70}
    .fil83 {fill:#ED2C6D}
    .fil84 {fill:#ED2D6A}
    .fil85 {fill:#ED2D68}
    .fil86 {fill:#ED2E65}
    .fil87 {fill:#ED2E62}
    .fil88 {fill:#ED2E5F}
    .fil89 {fill:#ED2F5C}
    .fil90 {fill:#ED2F5A}
    .fil91 {fill:#ED3057}
    .fil92 {fill:#ED3054}
    .fil93 {fill:#ED3051}
    .fil94 {fill:#EE304E}
    .fil95 {fill:#EE314B}
    .fil96 {fill:#EE3148}
    .fil97 {fill:#EE3145}
    .fil98 {fill:#EE3141}
    .fil99 {fill:#ED323F}
    .fil100 {fill:#ED323C}
    .fil101 {fill:#ED323A}
    .fil102 {fill:#ED3238}
    .fil2 {fill:#ED3237}
    .fil199 {fill:#373636}
    .fil136 {fill:#FDEF18}
    .fil200 {fill:#3A3839}
    .fil71 {fill:#E6288F}
    .fil198 {fill:#3C3D3D}
    .fil137 {fill:#FAEC21}
    .fil70 {fill:#E1298F}
    .fil201 {fill:#3F3E3F}
    .fil197 {fill:#404242}
    .fil138 {fill:#F2E927}
    .fil69 {fill:#DB2A8F}
    .fil202 {fill:#444243}
    .fil196 {fill:#444847}
    .fil139 {fill:#EAE72C}
    .fil68 {fill:#D62C8F}
    .fil203 {fill:#484647}
    .fil195 {fill:#484E4C}
    .fil67 {fill:#D02D90}
    .fil140 {fill:#E2E430}
    .fil194 {fill:#4B534F}
    .fil204 {fill:#4C4A4A}
    .fil66 {fill:#CC2E90}
    .fil141 {fill:#DBE134}
    .fil193 {fill:#4E5853}
    .fil205 {fill:#4F4D4D}
    .fil65 {fill:#C63090}
    .fil142 {fill:#D4DE37}
    .fil192 {fill:#505C56}
    .fil206 {fill:#514F4F}
    .fil64 {fill:#C13190}
    .fil191 {fill:#526059}
    .fil143 {fill:#CCDC3A}
    .fil207 {fill:#545150}
    .fil63 {fill:#BC3291}
    .fil190 {fill:#53645B}
    .fil144 {fill:#C5D93D}
    .fil208 {fill:#565252}
    .fil62 {fill:#B73391}
    .fil189 {fill:#54695E}
    .fil145 {fill:#BDD63F}
    .fil209 {fill:#575353}
    .fil61 {fill:#B13491}
    .fil188 {fill:#556C5F}
    .fil146 {fill:#B6D441}
    .fil210 {fill:#585453}
    .fil60 {fill:#AD3591}
    .fil187 {fill:#556F60}
    .fil147 {fill:#AED144}
    .fil211 {fill:#5A5453}
    .fil59 {fill:#A83692}
    .fil186 {fill:#557362}
    .fil148 {fill:#A6CE45}
    .fil212 {fill:#5A5553}
    .fil58 {fill:#A23792}
    .fil185 {fill:#547663}
    .fil149 {fill:#9ECC47}
    .fil57 {fill:#9E3792}
    .fil213 {fill:#5B5553}
    .fil184 {fill:#547963}
    .fil150 {fill:#96C949}
    .fil56 {fill:#993892}
    .fil214 {fill:#5B5553}
    .fil183 {fill:#527C64}
    .fil151 {fill:#8EC74A}
    .fil55 {fill:#943993}
    .fil215 {fill:#5B5452}
    .fil182 {fill:#517F65}
    .fil152 {fill:#87C54C}
    .fil54 {fill:#8F3993}
    .fil181 {fill:#4F8265}
    .fil216 {fill:#5B5452}
    .fil53 {fill:#8B3A93}
    .fil153 {fill:#7DC24D}
    .fil180 {fill:#4D8565}
    .fil217 {fill:#5B5451}
    .fil52 {fill:#863A93}
    .fil154 {fill:#75C04E}
    .fil179 {fill:#4A8865}
    .fil218 {fill:#5B5351}
    .fil51 {fill:#813B93}
    .fil155 {fill:#6CBE4F}
    .fil178 {fill:#478B66}
    .fil219 {fill:#5A5250}
    .fil50 {fill:#7C3B94}
    .fil177 {fill:#438D65}
    .fil156 {fill:#62BB51}
    .fil220 {fill:#59524F}
    .fil49 {fill:#773C94}
    .fil176 {fill:#3D9065}
    .fil157 {fill:#57B952}
    .fil221 {fill:#59514E}
    .fil48 {fill:#723C94}
    .fil175 {fill:#369363}
    .fil158 {fill:#49B753}
    .fil222 {fill:#574F4D}
    .fil47 {fill:#6D3D94}
    .fil174 {fill:#309563}
    .fil159 {fill:#3BB554}
    .fil223 {fill:#564E4C}
    .fil46 {fill:#683D94}
    .fil173 {fill:#1E9861}
    .fil160 {fill:#21B354}
    .fil224 {fill:#544D4B}
    .fil45 {fill:#623D94}
    .fil172 {fill:#0B9A60}
    .fil161 {fill:#04B155}
    .fil44 {fill:#5D3E95}
    .fil225 {fill:#524B49}
    .fil171 {fill:#009C5E}
    .fil162 {fill:#01AF56}
    .fil43 {fill:#573E95}
    .fil226 {fill:#4F4948}
    .fil170 {fill:#009F5D}
    .fil163 {fill:#00AD57}
    .fil42 {fill:#523E95}
    .fil227 {fill:#4D4848}
    .fil169 {fill:#00A15C}
    .fil41 {fill:#4C3F95}
    .fil164 {fill:#00AB58}
    .fil168 {fill:#00A35A}
    .fil228 {fill:#4A4647}
    .fil40 {fill:#463F95}
    .fil165 {fill:#00AA58}
    .fil167 {fill:#00A559}
    .fil229 {fill:#464446}
    .fil39 {fill:#403F95}
    .fil166 {fill:#00A859}
    .fil5 {fill:#00AFEF}
    .fil1 {fill:#00A859}
    .fil9 {fill:#00ABEB}
    .fil262 {fill:#00AAE4}
    .fil261 {fill:#00A7DD}
    .fil10 {fill:#00A7E7}
    .fil260 {fill:#00A3D5}
    .fil11 {fill:#00A3E4}
    .fil259 {fill:#00A0CE}
    .fil12 {fill:#00A0E1}
    .fil258 {fill:#009DC8}
    .fil13 {fill:#009CDE}
    .fil257 {fill:#0099C1}
    .fil14 {fill:#0098DB}
    .fil256 {fill:#0095BA}
    .fil15 {fill:#0095D7}
    .fil255 {fill:#0092B3}
    .fil16 {fill:#0091D4}
    .fil254 {fill:#008FAD}
    .fil17 {fill:#008DD1}
    .fil253 {fill:#008BA7}
    .fil18 {fill:#008ACE}
    .fil252 {fill:#0087A1}
    .fil19 {fill:#0086CA}
    .fil251 {fill:#00849B}
    .fil20 {fill:#0082C7}
    .fil250 {fill:#008195}
    .fil21 {fill:#007FC4}
    .fil249 {fill:#007E90}
    .fil248 {fill:#007B8B}
    .fil22 {fill:#007BC1}
    .fil247 {fill:#007786}
    .fil23 {fill:#0078BE}
    .fil246 {fill:#007481}
    .fil24 {fill:#0075BB}
    .fil245 {fill:#04717D}
    .fil25 {fill:#0071B8}
    .fil244 {fill:#106E78}
    .fil26 {fill:#006EB6}
    .fil243 {fill:#1C6B73}
    .fil27 {fill:#016AB3}
    .fil242 {fill:#22686F}
    .fil28 {fill:#0367B0}
    .fil241 {fill:#27656B}
    .fil29 {fill:#0963AE}
    .fil240 {fill:#2C6267}
    .fil30 {fill:#1560AB}
    .fil239 {fill:#305F63}
    .fil31 {fill:#205CA8}
    .fil238 {fill:#335C5F}
    .fil32 {fill:#2659A6}
    .fil237 {fill:#36595B}
    .fil33 {fill:#2B55A3}
    .fil236 {fill:#395657}
    .fil235 {fill:#3B5354}
    .fil34 {fill:#3051A0}
    .fil234 {fill:#3D5050}
    .fil35 {fill:#334D9E}
    .fil233 {fill:#3F4D4E}
    .fil36 {fill:#374A9C}
    .fil232 {fill:#414A4B}
    .fil37 {fill:#3A4599}
    .fil231 {fill:#424748}
    .fil38 {fill:#3D4297}
    .fil230 {fill:#444446}
    .fil3 {fill:#3E4095}
    .fil0 {fill:#444446}
  </style>
     <clipPath id="id0">
      <path d="M239 160.32c43.46,0 78.68,35.23 78.68,78.68 0,43.46 -35.22,78.68 -78.68,78.68 -43.46,0 -78.68,-35.22 -78.68,-78.68 0,-43.45 35.22,-78.68 78.68,-78.68z"/>
     </clipPath>
 </defs>
 <g id="Capa_x0020_1">
  <metadata id="CorelCorpID_0Corel-Layer"/>
  <g id="_2309823845232">
   <path class="fil0" d="M239 422.59c-101.4,0 -183.59,-82.19 -183.59,-183.59l183.59 0 0 183.59z"/>
   <path class="fil1" d="M422.59 239c0,-101.39 -82.19,-183.59 -183.59,-183.59l0 183.59 183.59 0z"/>
   <path class="fil2" d="M239 55.41c-101.4,0 -183.59,82.2 -183.59,183.59l183.59 0 0 -183.59z"/>
   <path class="fil3" d="M422.59 239c0,101.4 -82.19,183.59 -183.59,183.59l0 -183.59 183.59 0z"/>
   <path class="fil4" d="M239 107.86c72.42,0 131.14,58.72 131.14,131.14l-131.14 0 0 -131.14z"/>
   <path class="fil5" d="M107.86 239l131.14 0 0 -131.14c-72.42,0 -131.14,58.72 -131.14,131.14z"/>
   <path class="fil6" d="M239 370.14c-72.42,0 -131.14,-58.71 -131.14,-131.14l131.14 0 0 131.14z"/>
   <path class="fil7" d="M370.14 239l-131.14 0 0 131.14c72.42,0 131.14,-58.71 131.14,-131.14z"/>
   <line class="fil8 str0" x1="2.95" y1="239" x2="475.05" y2= "239" />
   <line class="fil8 str1" x1="239" y1="475.05" x2="239" y2= "2.95" />
   <g>
    <g style="clip-path:url(#id0)">
     <polygon class="fil9" points="239,239 153.15,152.09 156.41,148.99 "/>
     <polygon id="1" class="fil10" points="239,239 155.87,149.51 158.64,146.99 "/>
     <polygon id="2" class="fil11" points="239,239 158.09,147.5 160.93,145.05 "/>
     <polygon id="3" class="fil12" points="239,239 160.36,145.54 163.25,143.16 "/>
     <polygon id="4" class="fil13" points="239,239 162.67,143.64 165.63,141.33 "/>
     <polygon id="5" class="fil14" points="239,239 165.04,141.79 168.05,139.56 "/>
     <polygon id="6" class="fil15" points="239,239 167.45,140.01 170.51,137.85 "/>
     <polygon id="7" class="fil16" points="239,239 169.9,138.28 173.01,136.2 "/>
     <polygon id="8" class="fil17" points="239,239 172.39,136.61 175.56,134.61 "/>
     <polygon id="9" class="fil18" points="239,239 174.92,135.01 178.14,133.08 "/>
     <polygon id="10" class="fil19" points="239,239 177.49,133.47 180.75,131.62 "/>
     <polygon id="11" class="fil20" points="239,239 180.1,131.99 183.41,130.22 "/>
     <polygon id="12" class="fil21" points="239,239 182.75,130.58 186.09,128.89 "/>
     <polygon id="13" class="fil22" points="239,239 185.42,129.23 188.81,127.63 "/>
     <polygon id="14" class="fil23" points="239,239 188.13,127.95 191.56,126.43 "/>
     <polygon id="15" class="fil24" points="239,239 190.88,126.73 194.34,125.3 "/>
     <polygon id="16" class="fil25" points="239,239 193.64,125.59 197.14,124.24 "/>
     <polygon id="17" class="fil26" points="239,239 196.44,124.51 199.97,123.24 "/>
     <polygon id="18" class="fil27" points="239,239 199.26,123.5 202.82,122.32 "/>
     <polygon id="19" class="fil28" points="239,239 202.11,122.56 205.7,121.47 "/>
     <polygon id="20" class="fil29" points="239,239 204.98,121.69 208.59,120.69 "/>
     <polygon id="21" class="fil30" points="239,239 207.87,120.89 211.5,119.98 "/>
     <polygon id="22" class="fil31" points="239,239 210.78,120.16 214.43,119.34 "/>
     <polygon id="23" class="fil32" points="239,239 213.7,119.5 217.38,118.77 "/>
     <polygon id="24" class="fil33" points="239,239 216.64,118.92 220.33,118.28 "/>
     <polygon id="25" class="fil34" points="239,239 219.6,118.4 223.3,117.85 "/>
     <polygon id="26" class="fil35" points="239,239 222.56,117.96 226.28,117.51 "/>
     <polygon id="27" class="fil36" points="239,239 225.54,117.6 229.27,117.23 "/>
     <polygon id="28" class="fil37" points="239,239 228.52,117.3 232.26,117.03 "/>
     <polygon id="29" class="fil38" points="239,239 231.51,117.08 235.25,116.9 "/>
     <polygon id="30" class="fil39" points="239,239 234.5,116.94 238.25,116.84 "/>
     <polygon id="31" class="fil40" points="239,239 237.5,116.86 241.25,116.86 "/>
     <polygon id="32" class="fil41" points="239,239 240.5,116.86 244.25,116.95 "/>
     <polygon id="33" class="fil42" points="239,239 243.5,116.94 247.24,117.12 "/>
     <polygon id="34" class="fil43" points="239,239 246.49,117.08 250.23,117.36 "/>
     <polygon id="35" class="fil44" points="239,239 249.48,117.3 253.21,117.67 "/>
     <polygon id="36" class="fil45" points="239,239 252.46,117.6 256.18,118.06 "/>
     <polygon id="37" class="fil46" points="239,239 255.44,117.96 259.15,118.51 "/>
     <polygon id="38" class="fil47" points="239,239 258.4,118.4 262.1,119.05 "/>
     <polygon id="39" class="fil48" points="239,239 261.36,118.92 265.03,119.65 "/>
     <polygon id="40" class="fil49" points="239,239 264.3,119.5 267.95,120.32 "/>
     <polygon id="41" class="fil50" points="239,239 267.22,120.16 270.86,121.07 "/>
     <polygon id="42" class="fil51" points="239,239 270.13,120.89 273.74,121.89 "/>
     <polygon id="43" class="fil52" points="239,239 273.02,121.69 276.61,122.78 "/>
     <polygon id="44" class="fil53" points="239,239 275.89,122.56 279.45,123.73 "/>
     <polygon id="45" class="fil54" points="239,239 278.74,123.5 282.26,124.76 "/>
     <polygon id="46" class="fil55" points="239,239 281.56,124.51 285.05,125.86 "/>
     <polygon id="47" class="fil56" points="239,239 284.36,125.59 287.82,127.02 "/>
     <polygon id="48" class="fil57" points="239,239 287.12,126.73 290.55,128.25 "/>
     <polygon id="49" class="fil58" points="239,239 289.87,127.95 293.25,129.55 "/>
     <polygon id="50" class="fil59" points="239,239 292.58,129.23 295.92,130.92 "/>
     <polygon id="51" class="fil60" points="239,239 295.25,130.58 298.56,132.34 "/>
     <polygon id="52" class="fil61" points="239,239 297.9,131.99 301.16,133.84 "/>
     <polygon id="53" class="fil62" points="239,239 300.51,133.47 303.72,135.4 "/>
     <polygon id="54" class="fil63" points="239,239 303.08,135.01 306.24,137.01 "/>
     <polygon id="55" class="fil64" points="239,239 305.61,136.61 308.73,138.7 "/>
     <polygon id="56" class="fil65" points="239,239 308.1,138.28 311.17,140.44 "/>
     <polygon id="57" class="fil66" points="239,239 310.55,140.01 313.56,142.24 "/>
     <polygon id="58" class="fil67" points="239,239 312.96,141.79 315.92,144.1 "/>
     <polygon id="59" class="fil68" points="239,239 315.33,143.64 318.22,146.01 "/>
     <polygon id="60" class="fil69" points="239,239 317.64,145.54 320.48,147.99 "/>
     <polygon id="61" class="fil70" points="239,239 319.91,147.5 322.69,150.01 "/>
     <polygon id="62" class="fil71" points="239,239 322.13,149.51 324.85,152.09 "/>
     <polygon id="63" class="fil72" points="239,239 324.3,151.58 326.95,154.23 "/>
     <polygon id="64" class="fil73" points="239,239 326.42,153.7 329.01,156.41 "/>
     <polygon id="65" class="fil74" points="239,239 328.49,155.87 331.01,158.64 "/>
     <polygon id="66" class="fil75" points="239,239 330.5,158.09 332.95,160.93 "/>
     <polygon id="67" class="fil76" points="239,239 332.46,160.36 334.84,163.26 "/>
     <polygon id="68" class="fil77" points="239,239 334.37,162.68 336.67,165.63 "/>
     <polygon id="69" class="fil78" points="239,239 336.21,165.04 338.44,168.05 "/>
     <polygon id="70" class="fil79" points="239,239 338,167.45 340.15,170.51 "/>
     <polygon id="71" class="fil80" points="239,239 339.72,169.9 341.8,173.01 "/>
     <polygon id="72" class="fil81" points="239,239 341.39,172.39 343.39,175.56 "/>
     <polygon id="73" class="fil82" points="239,239 342.99,174.92 344.92,178.14 "/>
     <polygon id="74" class="fil83" points="239,239 344.53,177.49 346.38,180.76 "/>
     <polygon id="75" class="fil84" points="239,239 346.01,180.1 347.78,183.41 "/>
     <polygon id="76" class="fil85" points="239,239 347.42,182.75 349.11,186.09 "/>
     <polygon id="77" class="fil86" points="239,239 348.77,185.43 350.37,188.81 "/>
     <polygon id="78" class="fil87" points="239,239 350.05,188.13 351.57,191.56 "/>
     <polygon id="79" class="fil88" points="239,239 351.27,190.88 352.7,194.34 "/>
     <polygon id="80" class="fil89" points="239,239 352.41,193.65 353.76,197.14 "/>
     <polygon id="81" class="fil90" points="239,239 353.49,196.44 354.76,199.97 "/>
     <polygon id="82" class="fil91" points="239,239 354.5,199.26 355.68,202.82 "/>
     <polygon id="83" class="fil92" points="239,239 355.44,202.11 356.53,205.7 "/>
     <polygon id="84" class="fil93" points="239,239 356.31,204.98 357.31,208.59 "/>
     <polygon id="85" class="fil94" points="239,239 357.11,207.87 358.02,211.5 "/>
     <polygon id="86" class="fil95" points="239,239 357.84,210.78 358.66,214.43 "/>
     <polygon id="87" class="fil96" points="239,239 358.5,213.7 359.23,217.38 "/>
     <polygon id="88" class="fil97" points="239,239 359.08,216.64 359.72,220.34 "/>
     <polygon id="89" class="fil98" points="239,239 359.6,219.6 360.15,223.3 "/>
     <polygon id="90" class="fil99" points="239,239 360.04,222.56 360.49,226.28 "/>
     <polygon id="91" class="fil100" points="239,239 360.4,225.54 360.77,229.27 "/>
     <polygon id="92" class="fil101" points="239,239 360.7,228.52 360.97,232.26 "/>
     <polygon id="93" class="fil102" points="239,239 360.92,231.51 361.1,235.25 "/>
     <polygon id="94" class="fil103" points="239,239 361.06,234.5 361.16,238.25 "/>
     <polygon id="95" class="fil104" points="239,239 361.14,237.5 361.14,241.25 "/>
     <polygon id="96" class="fil105" points="239,239 361.14,240.5 361.05,244.25 "/>
     <polygon id="97" class="fil106" points="239,239 361.06,243.5 360.88,247.24 "/>
     <polygon id="98" class="fil107" points="239,239 360.92,246.49 360.64,250.23 "/>
     <polygon id="99" class="fil108" points="239,239 360.7,249.48 360.33,253.21 "/>
     <polygon id="100" class="fil109" points="239,239 360.4,252.46 359.94,256.18 "/>
     <polygon id="101" class="fil110" points="239,239 360.04,255.44 359.49,259.15 "/>
     <polygon id="102" class="fil111" points="239,239 359.6,258.4 358.96,262.1 "/>
     <polygon id="103" class="fil112" points="239,239 359.08,261.36 358.35,265.03 "/>
     <polygon id="104" class="fil113" points="239,239 358.5,264.3 357.68,267.95 "/>
     <polygon id="105" class="fil114" points="239,239 357.84,267.22 356.93,270.86 "/>
     <polygon id="106" class="fil115" points="239,239 357.11,270.13 356.11,273.74 "/>
     <polygon id="107" class="fil116" points="239,239 356.31,273.02 355.23,276.61 "/>
     <polygon id="108" class="fil117" points="239,239 355.44,275.89 354.27,279.45 "/>
     <polygon id="109" class="fil118" points="239,239 354.5,278.74 353.24,282.27 "/>
     <polygon id="110" class="fil119" points="239,239 353.49,281.56 352.14,285.06 "/>
     <polygon id="111" class="fil120" points="239,239 352.41,284.36 350.98,287.82 "/>
     <polygon id="112" class="fil121" points="239,239 351.27,287.13 349.75,290.55 "/>
     <polygon id="113" class="fil122" points="239,239 350.05,289.87 348.45,293.25 "/>
     <polygon id="114" class="fil123" points="239,239 348.77,292.58 347.09,295.92 "/>
     <polygon id="115" class="fil124" points="239,239 347.42,295.25 345.66,298.56 "/>
     <polygon id="116" class="fil125" points="239,239 346.01,297.9 344.16,301.16 "/>
     <polygon id="117" class="fil126" points="239,239 344.53,300.51 342.61,303.72 "/>
     <polygon id="118" class="fil127" points="239,239 342.99,303.08 340.99,306.24 "/>
     <polygon id="119" class="fil128" points="239,239 341.39,305.61 339.3,308.73 "/>
     <polygon id="120" class="fil129" points="239,239 339.72,308.1 337.56,311.17 "/>
     <polygon id="121" class="fil130" points="239,239 338,310.55 335.76,313.56 "/>
     <polygon id="122" class="fil131" points="239,239 336.21,312.96 333.9,315.92 "/>
     <polygon id="123" class="fil132" points="239,239 334.37,315.33 331.99,318.22 "/>
     <polygon id="124" class="fil133" points="239,239 332.46,317.64 330.01,320.48 "/>
     <polygon id="125" class="fil134" points="239,239 330.5,319.91 327.99,322.69 "/>
     <polygon id="126" class="fil135" points="239,239 328.49,322.13 325.91,324.85 "/>
     <polygon id="127" class="fil136" points="239,239 326.42,324.31 323.77,326.96 "/>
     <polygon id="128" class="fil137" points="239,239 324.3,326.43 321.59,329.01 "/>
     <polygon id="129" class="fil138" points="239,239 322.13,328.49 319.36,331.01 "/>
     <polygon id="130" class="fil139" points="239,239 319.91,330.51 317.07,332.95 "/>
     <polygon id="131" class="fil140" points="239,239 317.64,332.46 314.75,334.84 "/>
     <polygon id="132" class="fil141" points="239,239 315.33,334.37 312.37,336.67 "/>
     <polygon id="133" class="fil142" points="239,239 312.96,336.21 309.95,338.44 "/>
     <polygon id="134" class="fil143" points="239,239 310.55,338 307.49,340.15 "/>
     <polygon id="135" class="fil144" points="239,239 308.1,339.72 304.99,341.8 "/>
     <polygon id="136" class="fil145" points="239,239 305.61,341.39 302.44,343.39 "/>
     <polygon id="137" class="fil146" points="239,239 303.08,342.99 299.86,344.92 "/>
     <polygon id="138" class="fil147" points="239,239 300.51,344.53 297.25,346.38 "/>
     <polygon id="139" class="fil148" points="239,239 297.9,346.01 294.59,347.78 "/>
     <polygon id="140" class="fil149" points="239,239 295.25,347.42 291.91,349.11 "/>
     <polygon id="141" class="fil150" points="239,239 292.58,348.77 289.19,350.37 "/>
     <polygon id="142" class="fil151" points="239,239 289.87,350.05 286.44,351.57 "/>
     <polygon id="143" class="fil152" points="239,239 287.12,351.27 283.66,352.7 "/>
     <polygon id="144" class="fil153" points="239,239 284.36,352.42 280.86,353.76 "/>
     <polygon id="145" class="fil154" points="239,239 281.56,353.49 278.03,354.76 "/>
     <polygon id="146" class="fil155" points="239,239 278.74,354.5 275.18,355.68 "/>
     <polygon id="147" class="fil156" points="239,239 275.89,355.44 272.3,356.53 "/>
     <polygon id="148" class="fil157" points="239,239 273.02,356.32 269.41,357.32 "/>
     <polygon id="149" class="fil158" points="239,239 270.13,357.11 266.5,358.03 "/>
     <polygon id="150" class="fil159" points="239,239 267.22,357.84 263.57,358.66 "/>
     <polygon id="151" class="fil160" points="239,239 264.3,358.5 260.62,359.23 "/>
     <polygon id="152" class="fil161" points="239,239 261.36,359.08 257.67,359.73 "/>
     <polygon id="153" class="fil162" points="239,239 258.4,359.6 254.7,360.15 "/>
     <polygon id="154" class="fil163" points="239,239 255.44,360.04 251.72,360.5 "/>
     <polygon id="155" class="fil164" points="239,239 252.46,360.4 248.73,360.77 "/>
     <polygon id="156" class="fil165" points="239,239 249.48,360.7 245.74,360.97 "/>
     <polygon id="157" class="fil166" points="239,239 246.49,360.92 242.75,361.1 "/>
     <polygon id="158" class="fil167" points="239,239 243.5,361.07 239.75,361.16 "/>
     <polygon id="159" class="fil168" points="239,239 240.5,361.14 236.75,361.14 "/>
     <polygon id="160" class="fil169" points="239,239 237.5,361.14 233.75,361.05 "/>
     <polygon id="161" class="fil170" points="239,239 234.5,361.07 230.76,360.88 "/>
     <polygon id="162" class="fil171" points="239,239 231.51,360.92 227.77,360.64 "/>
     <polygon id="163" class="fil172" points="239,239 228.52,360.7 224.79,360.33 "/>
     <polygon id="164" class="fil173" points="239,239 225.54,360.4 221.82,359.95 "/>
     <polygon id="165" class="fil174" points="239,239 222.56,360.04 218.85,359.49 "/>
     <polygon id="166" class="fil175" points="239,239 219.6,359.6 215.9,358.96 "/>
     <polygon id="167" class="fil176" points="239,239 216.64,359.08 212.97,358.35 "/>
     <polygon id="168" class="fil177" points="239,239 213.7,358.5 210.05,357.68 "/>
     <polygon id="169" class="fil178" points="239,239 210.78,357.84 207.14,356.93 "/>
     <polygon id="170" class="fil179" points="239,239 207.87,357.11 204.26,356.11 "/>
     <polygon id="171" class="fil180" points="239,239 204.98,356.32 201.39,355.23 "/>
     <polygon id="172" class="fil181" points="239,239 202.11,355.44 198.55,354.27 "/>
     <polygon id="173" class="fil182" points="239,239 199.26,354.5 195.74,353.24 "/>
     <polygon id="174" class="fil183" points="239,239 196.44,353.49 192.95,352.15 "/>
     <polygon id="175" class="fil184" points="239,239 193.64,352.42 190.18,350.98 "/>
     <polygon id="176" class="fil185" points="239,239 190.88,351.27 187.45,349.75 "/>
     <polygon id="177" class="fil186" points="239,239 188.13,350.05 184.75,348.45 "/>
     <polygon id="178" class="fil187" points="239,239 185.42,348.77 182.08,347.09 "/>
     <polygon id="179" class="fil188" points="239,239 182.75,347.42 179.44,345.66 "/>
     <polygon id="180" class="fil189" points="239,239 180.1,346.01 176.84,344.16 "/>
     <polygon id="181" class="fil190" points="239,239 177.49,344.53 174.28,342.61 "/>
     <polygon id="182" class="fil191" points="239,239 174.92,342.99 171.76,340.99 "/>
     <polygon id="183" class="fil192" points="239,239 172.39,341.39 169.27,339.31 "/>
     <polygon id="184" class="fil193" points="239,239 169.9,339.72 166.83,337.56 "/>
     <polygon id="185" class="fil194" points="239,239 167.45,338 164.44,335.76 "/>
     <polygon id="186" class="fil195" points="239,239 165.04,336.21 162.08,333.9 "/>
     <polygon id="187" class="fil196" points="239,239 162.67,334.37 159.78,331.99 "/>
     <polygon id="188" class="fil197" points="239,239 160.36,332.46 157.52,330.02 "/>
     <polygon id="189" class="fil198" points="239,239 158.09,330.51 155.31,327.99 "/>
     <polygon id="190" class="fil199" points="239,239 155.87,328.49 153.15,325.91 "/>
     <polygon id="191" class="fil200" points="239,239 153.7,326.43 151.05,323.78 "/>
     <polygon id="192" class="fil201" points="239,239 151.58,324.31 148.99,321.59 "/>
     <polygon id="193" class="fil202" points="239,239 149.51,322.13 146.99,319.36 "/>
     <polygon id="194" class="fil203" points="239,239 147.5,319.91 145.05,317.08 "/>
     <polygon id="195" class="fil204" points="239,239 145.54,317.64 143.16,314.75 "/>
     <polygon id="196" class="fil205" points="239,239 143.63,315.33 141.33,312.37 "/>
     <polygon id="197" class="fil206" points="239,239 141.79,312.96 139.56,309.95 "/>
     <polygon id="198" class="fil207" points="239,239 140,310.55 137.85,307.49 "/>
     <polygon id="199" class="fil208" points="239,239 138.28,308.1 136.2,304.99 "/>
     <polygon id="200" class="fil209" points="239,239 136.61,305.61 134.61,302.45 "/>
     <polygon id="201" class="fil210" points="239,239 135.01,303.08 133.08,299.86 "/>
     <polygon id="202" class="fil211" points="239,239 133.47,300.51 131.62,297.25 "/>
     <polygon id="203" class="fil212" points="239,239 131.99,297.9 130.22,294.59 "/>
     <polygon id="204" class="fil213" points="239,239 130.58,295.25 128.89,291.91 "/>
     <polygon id="205" class="fil214" points="239,239 129.23,292.58 127.63,289.19 "/>
     <polygon id="206" class="fil215" points="239,239 127.95,289.87 126.43,286.44 "/>
     <polygon id="207" class="fil216" points="239,239 126.73,287.13 125.3,283.66 "/>
     <polygon id="208" class="fil217" points="239,239 125.59,284.36 124.24,280.86 "/>
     <polygon id="209" class="fil218" points="239,239 124.51,281.56 123.24,278.03 "/>
     <polygon id="210" class="fil219" points="239,239 123.5,278.74 122.32,275.18 "/>
     <polygon id="211" class="fil220" points="239,239 122.56,275.89 121.47,272.3 "/>
     <polygon id="212" class="fil221" points="239,239 121.69,273.02 120.69,269.41 "/>
     <polygon id="213" class="fil222" points="239,239 120.89,270.13 119.98,266.5 "/>
     <polygon id="214" class="fil223" points="239,239 120.16,267.22 119.34,263.57 "/>
     <polygon id="215" class="fil224" points="239,239 119.5,264.3 118.77,260.62 "/>
     <polygon id="216" class="fil225" points="239,239 118.92,261.36 118.28,257.67 "/>
     <polygon id="217" class="fil226" points="239,239 118.4,258.4 117.85,254.7 "/>
     <polygon id="218" class="fil227" points="239,239 117.96,255.44 117.51,251.72 "/>
     <polygon id="219" class="fil228" points="239,239 117.6,252.46 117.23,248.73 "/>
     <polygon id="220" class="fil229" points="239,239 117.3,249.48 117.03,245.74 "/>
     <polygon id="221" class="fil230" points="239,239 117.08,246.49 116.9,242.75 "/>
     <polygon id="222" class="fil231" points="239,239 116.94,243.5 116.84,239.75 "/>
     <polygon id="223" class="fil232" points="239,239 116.86,240.5 116.86,236.75 "/>
     <polygon id="224" class="fil233" points="239,239 116.86,237.5 116.95,233.76 "/>
     <polygon id="225" class="fil234" points="239,239 116.94,234.5 117.12,230.76 "/>
     <polygon id="226" class="fil235" points="239,239 117.08,231.51 117.36,227.77 "/>
     <polygon id="227" class="fil236" points="239,239 117.3,228.52 117.67,224.79 "/>
     <polygon id="228" class="fil237" points="239,239 117.6,225.54 118.06,221.82 "/>
     <polygon id="229" class="fil238" points="239,239 117.96,222.56 118.51,218.86 "/>
     <polygon id="230" class="fil239" points="239,239 118.4,219.6 119.04,215.9 "/>
     <polygon id="231" class="fil240" points="239,239 118.92,216.64 119.65,212.97 "/>
     <polygon id="232" class="fil241" points="239,239 119.5,213.7 120.32,210.05 "/>
     <polygon id="233" class="fil242" points="239,239 120.16,210.78 121.07,207.14 "/>
     <polygon id="234" class="fil243" points="239,239 120.89,207.87 121.89,204.26 "/>
     <polygon id="235" class="fil244" points="239,239 121.69,204.98 122.77,201.39 "/>
     <polygon id="236" class="fil245" points="239,239 122.56,202.11 123.73,198.55 "/>
     <polygon id="237" class="fil246" points="239,239 123.5,199.26 124.76,195.74 "/>
     <polygon id="238" class="fil247" points="239,239 124.51,196.44 125.86,192.95 "/>
     <polygon id="239" class="fil248" points="239,239 125.59,193.65 127.02,190.18 "/>
     <polygon id="240" class="fil249" points="239,239 126.73,190.88 128.25,187.45 "/>
     <polygon id="241" class="fil250" points="239,239 127.95,188.13 129.55,184.75 "/>
     <polygon id="242" class="fil251" points="239,239 129.23,185.43 130.91,182.08 "/>
     <polygon id="243" class="fil252" points="239,239 130.58,182.75 132.34,179.44 "/>
     <polygon id="244" class="fil253" points="239,239 131.99,180.1 133.84,176.84 "/>
     <polygon id="245" class="fil254" points="239,239 133.47,177.49 135.39,174.28 "/>
     <polygon id="246" class="fil255" points="239,239 135.01,174.92 137.01,171.76 "/>
     <polygon id="247" class="fil256" points="239,239 136.61,172.39 138.7,169.27 "/>
     <polygon id="248" class="fil257" points="239,239 138.28,169.9 140.44,166.83 "/>
     <polygon id="249" class="fil258" points="239,239 140,167.45 142.24,164.44 "/>
     <polygon id="250" class="fil259" points="239,239 141.79,165.04 144.1,162.08 "/>
     <polygon id="251" class="fil260" points="239,239 143.63,162.68 146.01,159.78 "/>
     <polygon id="252" class="fil261" points="239,239 145.54,160.36 147.99,157.52 "/>
     <polygon id="253" class="fil262" points="239,239 147.5,158.09 150.01,155.31 "/>
     <polygon id="254" class="fil5" points="239,239 149.51,155.87 152.09,153.15 "/>
     <polygon id="255" class="fil5" points="239,239 151.58,153.7 153.7,151.58 "/>
    </g>
   </g>
   <line class="fil8 str2" x1="239" y1="370.14" x2="239" y2= "107.86" />
   <line class="fil8 str2" x1="370.14" y1="239" x2="107.86" y2= "239" />
   <circle class="fil263" cx="239" cy="239" r="31.91"/>
   <line class="fil8 str3" x1="16.76" y1="2.95" x2="264.36" y2= "2.95" />
  </g>
 </g>
</svg>